<svg width="16" height="17" viewBox="0 0 16 17" fill="none" xmlns="http://www.w3.org/2000/svg">
<g clip-path="url(#clip0_975_3024)">
<path fill-rule="evenodd" clip-rule="evenodd" d="M16 8.35278C16 9.14278 14.72 9.73278 14.48 10.4428C14.24 11.1528 14.92 12.4428 14.48 13.0328C14.04 13.6228 12.64 13.3828 12.02 13.8328C11.4 14.2828 11.23 15.6728 10.48 15.9228C9.73 16.1728 8.81 15.1228 8.01 15.1228C7.21 15.1228 6.26 16.1228 5.54 15.9228C4.82 15.7228 4.62 14.2828 4 13.8328C3.38 13.3828 2 13.6528 1.54 13.0328C1.08 12.4128 1.77 11.1928 1.54 10.4428C1.31 9.69278 0 9.14278 0 8.35278C0 7.56278 1.28 6.97278 1.52 6.26278C1.76 5.55278 1.08 4.26278 1.52 3.67278C1.96 3.08278 3.37 3.32278 4 2.87278C4.63 2.42278 4.78 1.03278 5.53 0.752777C6.28 0.472777 7.2 1.58278 8 1.58278C8.8 1.58278 9.75 0.582777 10.47 0.782777C11.19 0.982777 11.38 2.42278 12 2.87278C12.62 3.32278 14 3.05278 14.46 3.67278C14.92 4.29278 14.23 5.51278 14.46 6.26278C14.69 7.01278 16 7.56278 16 8.35278Z" fill="#3BA55C"/>
<path d="M7.4 11.9228L4 9.37281L5 8.01281L7 9.54281L10.64 4.75281L12 5.75281L7.4 11.9228Z" fill="white"/>
</g>
<defs>
<clipPath id="clip0_975_3024">
<rect width="16" height="16" fill="white" transform="translate(0 0.352783)"/>
</clipPath>
</defs>
</svg>
