<svg width="1662" height="643" viewBox="0 0 1662 643" fill="none" xmlns="http://www.w3.org/2000/svg">
<path d="M1106 429.056C1010 404.256 1051.5 502.056 881.5 565.056C507.491 703.66 31.3333 792.39 0 783.556C29.8333 802.556 985.1 745.756 1073.5 770.556C1184 801.556 1249 806.056 1624.5 869.556C2000 933.056 1787 809.556 1835.5 710.056C1884 610.556 2040.5 -63.4439 2040.5 -84.4439C2040.5 -105.444 1631 -773.944 1670 -151.444C1709 471.056 1226 460.056 1106 429.056Z" fill="#282A37"/>
<path d="M1104.62 601.965C1107.33 592.764 1086.54 578.521 1058.18 570.153C1029.82 561.784 1004.63 562.459 1001.92 571.66C999.201 580.861 1019.99 595.104 1048.35 603.472C1076.71 611.841 1101.9 611.166 1104.62 601.965Z" fill="#171821"/>
<path d="M1280.72 251.544C1280.61 251.544 1280.49 251.529 1280.37 251.499C1279.55 251.303 1279.06 250.489 1279.25 249.683L1283.59 231.551C1284.14 229.268 1283.37 226.903 1281.57 225.381L1274.2 219.114C1273.56 218.571 1273.49 217.622 1274.02 216.989C1274.57 216.357 1275.52 216.281 1276.15 216.816L1283.52 223.084C1286.18 225.344 1287.33 228.854 1286.52 232.251L1282.18 250.384C1282.02 251.077 1281.4 251.544 1280.72 251.544Z" fill="#9DA1FF"/>
<path d="M1296.66 253.02C1296.54 253.02 1296.42 253.005 1296.3 252.975C1295.49 252.779 1295 251.958 1295.2 251.152L1321.49 144.355C1321.69 143.549 1322.51 143.052 1323.31 143.256C1324.12 143.451 1324.62 144.272 1324.41 145.079L1298.12 251.875C1297.96 252.561 1297.34 253.02 1296.66 253.02V253.02Z" fill="url(#paint0_linear_101_1477)"/>
<path d="M1313.98 251.664C1313.87 251.664 1313.75 251.649 1313.63 251.626C1312.82 251.43 1312.32 250.624 1312.52 249.811L1324.19 200.68C1324.71 198.525 1325.98 196.62 1327.78 195.324L1341.01 185.817C1341.69 185.327 1342.63 185.486 1343.11 186.164C1343.59 186.842 1343.44 187.783 1342.76 188.265L1329.54 197.772C1328.32 198.646 1327.46 199.927 1327.12 201.373L1315.44 250.504C1315.28 251.197 1314.66 251.664 1313.98 251.664V251.664Z" fill="url(#paint1_linear_101_1477)"/>
<path d="M1362.53 355.982L1215.67 339.296C1210.67 338.731 1207.29 333.917 1208.44 329.021L1226.41 252.771C1228.09 245.66 1234.48 240.673 1241.78 240.763L1396.35 242.774C1401.85 242.85 1405.8 248.093 1404.35 253.396L1379.31 344.614C1377.27 352.019 1370.15 356.841 1362.52 355.974L1362.53 355.982Z" fill="#387CFF"/>
<path d="M1358.38 350.679L1211.52 333.993C1206.52 333.428 1203.14 328.614 1204.29 323.718L1222.26 247.468C1223.94 240.356 1230.33 235.37 1237.63 235.46L1392.2 237.471C1397.7 237.547 1401.65 242.79 1400.2 248.093L1375.16 339.311C1373.12 346.716 1366 351.537 1358.37 350.671L1358.38 350.679Z" fill="#38BAFF"/>
<path d="M1389.42 253.244L1367.51 333.058C1366.21 337.804 1361.66 340.9 1356.77 340.38L1218.17 325.615C1217.47 325.54 1216.82 325.306 1216.27 324.952C1216.27 324.945 1216.26 324.945 1216.26 324.945C1214.78 323.98 1213.96 322.142 1214.39 320.289L1231.07 249.538C1231.77 246.57 1234.38 244.499 1237.44 244.499L1384.28 246.412C1386.3 246.435 1387.98 247.542 1388.88 249.124C1389.57 250.314 1389.82 251.776 1389.42 253.244V253.244Z" fill="#387CFF"/>
<path d="M1389.42 253.245L1367.51 333.058C1366.21 337.804 1361.66 340.9 1356.77 340.381L1265.29 330.633L1218.17 325.616C1218.02 325.601 1217.89 325.578 1217.75 325.548C1217.65 325.533 1217.54 325.503 1217.44 325.473C1217.39 325.465 1217.34 325.45 1217.29 325.427C1217.2 325.405 1217.12 325.375 1217.04 325.337C1216.98 325.322 1216.93 325.299 1216.88 325.269C1216.78 325.232 1216.69 325.186 1216.61 325.141C1216.49 325.081 1216.37 325.013 1216.26 324.945C1215.83 324.064 1215.68 323.039 1215.93 322L1223.07 291.694L1232.61 251.249C1233.31 248.281 1235.92 246.209 1238.97 246.209L1284.34 246.797L1360.09 247.784L1385.82 248.123C1386.98 248.138 1388.03 248.507 1388.88 249.125C1389.57 250.315 1389.82 251.776 1389.42 253.245V253.245Z" fill="#38ECFF"/>
<path d="M1362.08 246.127C1361.42 246.676 1360.75 247.226 1360.09 247.784L1284.34 246.797C1285.22 246.24 1286.09 245.69 1286.97 245.147L1362.08 246.127V246.127Z" fill="#38ECFF"/>
<path d="M1216.26 324.944C1214.78 323.98 1213.96 322.142 1214.39 320.289L1220.67 293.637C1221.47 292.989 1222.27 292.341 1223.07 291.693L1215.93 321.999C1215.68 323.039 1215.83 324.063 1216.26 324.944V324.944Z" fill="#38ECFF"/>
<path d="M1360.09 247.784C1327.81 274.64 1296.83 303.123 1265.29 330.634L1218.17 325.617C1218.02 325.601 1217.89 325.579 1217.75 325.549C1217.65 325.534 1217.54 325.504 1217.44 325.473C1217.39 325.466 1217.34 325.451 1217.29 325.428C1217.2 325.406 1217.12 325.375 1217.04 325.338C1216.98 325.323 1216.93 325.3 1216.88 325.27C1216.78 325.232 1216.69 325.187 1216.61 325.142C1216.49 325.082 1216.37 325.014 1216.26 324.946C1215.83 324.065 1215.68 323.04 1215.93 322.001L1223.07 291.695C1242.79 275.74 1262.92 260.335 1284.34 246.798L1360.09 247.784V247.784Z" fill="#75FFFF"/>
<path d="M1341.21 329.247L1297.13 324.878C1292.93 324.464 1290.13 320.328 1291.31 316.275L1307.52 260.53C1308.38 257.585 1311.11 255.589 1314.18 255.664L1357.86 256.756C1362.23 256.869 1365.34 261.035 1364.21 265.254L1348.4 324.268C1347.54 327.462 1344.5 329.564 1341.21 329.24V329.247Z" stroke="white" stroke-width="0.831779" stroke-miterlimit="10"/>
<path d="M1338.13 327.025L1294.05 322.656C1289.84 322.242 1287.05 318.106 1288.23 314.053L1304.44 258.308C1305.3 255.363 1308.03 253.366 1311.09 253.442L1354.78 254.534C1359.15 254.647 1362.26 258.813 1361.13 263.031L1345.32 322.046C1344.46 325.24 1341.42 327.342 1338.13 327.018V327.025Z" fill="#38BAFF"/>
<path d="M1336.98 318.159C1336.94 318.159 1336.89 318.159 1336.84 318.159L1295.68 314.083C1295.12 314.03 1294.81 313.684 1294.67 313.481C1294.54 313.277 1294.33 312.863 1294.49 312.32L1309.62 260.282C1309.8 259.694 1310.34 259.287 1310.95 259.287L1351.77 260.312C1352.35 260.327 1352.69 260.666 1352.84 260.862C1352.99 261.058 1353.22 261.479 1353.07 262.044L1338.3 317.142C1338.15 317.744 1337.6 318.166 1336.98 318.166L1336.98 318.159Z" fill="#387CFF"/>
<path d="M1337.87 319.688C1337.82 319.688 1337.78 319.688 1337.72 319.688L1296.56 315.613C1296.01 315.56 1295.69 315.214 1295.55 315.01C1295.42 314.807 1295.22 314.393 1295.37 313.85L1310.51 261.812C1310.68 261.224 1311.22 260.817 1311.83 260.817L1352.65 261.842C1353.23 261.857 1353.57 262.196 1353.72 262.392C1353.88 262.587 1354.1 263.009 1353.95 263.574L1339.19 318.671C1339.03 319.274 1338.48 319.696 1337.86 319.696L1337.87 319.688Z" fill="#38ECFF"/>
<path d="M1353.72 262.379C1353.57 262.175 1353.24 261.844 1352.65 261.829L1340.41 261.52C1325.24 272.639 1312.33 286.018 1299.54 299.509L1295.37 313.837C1295.22 314.38 1295.42 314.794 1295.55 314.998C1295.69 315.201 1296 315.54 1296.56 315.6L1301.98 316.135C1319.24 298.041 1336.5 280.225 1353.75 262.432C1353.75 262.416 1353.73 262.394 1353.72 262.386V262.379Z" fill="#75FFFF"/>
<path d="M1310.08 295.158L1317.26 270.457C1318.12 267.512 1320.86 265.508 1323.92 265.583L1335.29 265.87C1339.67 265.983 1342.79 270.156 1341.66 274.382L1334.8 299.964C1333.94 303.166 1330.9 305.268 1327.6 304.944L1315.9 303.784C1311.69 303.369 1308.89 299.226 1310.08 295.166V295.158Z" fill="#387CFF"/>
<path d="M1336.32 323.619L1292.23 319.25C1288.03 318.836 1285.23 314.7 1286.42 310.647L1302.63 254.902C1303.49 251.957 1306.21 249.96 1309.28 250.036L1352.96 251.128C1357.33 251.241 1360.44 255.407 1359.31 259.625L1343.5 318.64C1342.64 321.834 1339.61 323.935 1336.32 323.612V323.619Z" stroke="white" stroke-width="0.831779" stroke-miterlimit="10"/>
<path d="M1329.02 311.07L1307.49 309.142" stroke="white" stroke-width="4.15889" stroke-miterlimit="10" stroke-linecap="round"/>
<path d="M1295.15 261.787C1296.24 258.209 1293.61 254.585 1289.87 254.502L1255.85 253.757C1253.29 253.704 1251 255.384 1250.29 257.847L1248.16 265.312C1247.33 268.205 1249.4 271.12 1252.4 271.301L1287.82 273.441C1289.99 273.569 1291.98 272.198 1292.61 270.118L1295.14 261.794L1295.15 261.787Z" stroke="white" stroke-width="0.831779" stroke-miterlimit="10"/>
<path d="M1243.42 279.58L1240.55 289.637C1239.81 292.251 1241.68 294.888 1244.39 295.053L1280.39 297.193C1282.35 297.306 1284.14 296.07 1284.71 294.187L1287.76 284.168C1288.56 281.539 1286.7 278.85 1283.95 278.684L1247.77 276.499C1245.78 276.379 1243.97 277.659 1243.42 279.58V279.58Z" fill="#38BAFF"/>
<path d="M1236.34 309.336C1235.37 312.749 1237.75 316.199 1241.29 316.508L1273.88 319.302C1276.53 319.528 1278.98 317.871 1279.76 315.325L1282.3 306.986C1283.19 304.033 1281.1 301.02 1278.02 300.831L1243.24 298.767C1241.01 298.632 1238.98 300.07 1238.37 302.217L1236.34 309.329L1236.34 309.336Z" stroke="white" stroke-width="0.831779" stroke-miterlimit="10"/>
<path d="M1241.12 276.975L1238.25 287.032C1237.5 289.646 1239.37 292.283 1242.08 292.448L1278.08 294.588C1280.04 294.701 1281.84 293.465 1282.41 291.582L1285.46 281.563C1286.26 278.934 1284.39 276.245 1281.65 276.079L1245.47 273.894C1243.48 273.774 1241.67 275.054 1241.12 276.975V276.975Z" stroke="white" stroke-width="0.831779" stroke-miterlimit="10"/>
<path d="M1256.81 264.282C1258.2 264.282 1259.32 263.159 1259.32 261.774C1259.32 260.388 1258.2 259.265 1256.81 259.265C1255.43 259.265 1254.3 260.388 1254.3 261.774C1254.3 263.159 1255.43 264.282 1256.81 264.282Z" stroke="white" stroke-width="0.831779" stroke-miterlimit="10"/>
<path d="M1246.43 285.819C1247.82 285.819 1248.94 284.696 1248.94 283.311C1248.94 281.925 1247.82 280.802 1246.43 280.802C1245.05 280.802 1243.92 281.925 1243.92 283.311C1243.92 284.696 1245.05 285.819 1246.43 285.819Z" stroke="white" stroke-width="0.831779" stroke-miterlimit="10"/>
<path d="M1244.01 310.259C1245.4 310.259 1246.52 309.136 1246.52 307.75C1246.52 306.365 1245.4 305.242 1244.01 305.242C1242.63 305.242 1241.5 306.365 1241.5 307.75C1241.5 309.136 1242.63 310.259 1244.01 310.259Z" stroke="white" stroke-width="0.831779" stroke-miterlimit="10"/>
<path d="M1276.97 284.462L1255.05 283.708" stroke="white" stroke-width="0.831779" stroke-miterlimit="10"/>
<path d="M1273.72 309.39L1251.8 308.644" stroke="white" stroke-width="0.831779" stroke-miterlimit="10"/>
<path d="M1286.14 263.527L1264.22 262.774" stroke="white" stroke-width="0.831779" stroke-miterlimit="10"/>
<path d="M1361.63 382.416L1336.78 416.021C1332.75 421.467 1325.94 424.097 1319.3 422.786L1154.59 390.19C1151.65 389.61 1150.97 375.659 1153.54 374.114L1191.28 351.455C1197.66 347.62 1205.16 346.084 1212.53 347.093L1359.44 367.169C1360.56 367.922 1361.63 368.171 1362.28 370.34C1362.28 370.34 1363.12 380.412 1361.63 382.416Z" fill="#387CFF"/>
<path d="M1359.44 367.169L1212.53 347.093C1205.16 346.084 1197.66 347.628 1191.28 351.455L1153.54 374.114C1150.96 375.659 1151.65 379.561 1154.59 380.148L1319.3 412.744C1325.94 414.062 1332.75 411.426 1336.78 405.979L1361.63 372.374C1363.12 370.37 1361.91 367.508 1359.44 367.176V367.169Z" fill="#38BAFF"/>
<path d="M1305.54 369.527L1274.34 393.859C1272.66 395.17 1270.49 395.689 1268.39 395.283L1231.51 388.111C1229.7 387.757 1228.98 385.55 1230.23 384.186L1254.18 358.25C1254.72 357.67 1255.52 357.391 1256.3 357.519L1304.46 365.323C1306.49 365.655 1307.16 368.254 1305.54 369.519V369.527Z" fill="#38ECFF"/>
<path d="M1320.99 368.155L1343.44 371.567C1346.52 372.034 1347.87 375.733 1345.81 378.076L1333.08 392.57C1330.74 395.229 1327.16 396.434 1323.69 395.734L1299 390.732C1295.77 390.076 1294.73 385.986 1297.23 383.854L1313.11 370.392C1315.28 368.547 1318.16 367.733 1320.98 368.162L1320.99 368.155Z" fill="#38ECFF"/>
<path d="M1284.31 395.803L1288.41 392.812C1288.66 392.624 1288.99 392.549 1289.3 392.616L1295.76 393.912C1296.71 394.1 1297.01 395.306 1296.26 395.916L1292.47 399.019C1292.21 399.238 1291.86 399.321 1291.52 399.253L1284.75 397.844C1283.79 397.641 1283.52 396.39 1284.31 395.81L1284.31 395.803Z" fill="#38ECFF"/>
<path d="M1296.92 398.174L1300.29 395.409C1300.6 395.153 1301.02 395.048 1301.41 395.123L1309.64 396.705C1310.75 396.916 1311.13 398.31 1310.28 399.063L1307.04 401.918C1306.73 402.197 1306.29 402.317 1305.87 402.234L1297.51 400.555C1296.39 400.329 1296.03 398.897 1296.92 398.167V398.174Z" fill="#38ECFF"/>
<path d="M1311.06 401.346L1314.61 398.22C1314.89 397.972 1315.28 397.866 1315.65 397.941L1323.52 399.493C1324.52 399.689 1324.86 400.932 1324.1 401.602L1320.53 404.781C1320.25 405.038 1319.86 405.143 1319.48 405.068L1311.63 403.463C1310.64 403.26 1310.31 402.017 1311.06 401.346H1311.06Z" fill="#38ECFF"/>
<path d="M1377.21 92.8428C1368.62 120.248 1339.13 136.685 1315.16 130.915C1294.69 125.988 1284.86 105.981 1290.75 85.3775C1296.71 64.5032 1317.79 46.4313 1340.69 45.0829C1367.6 43.4934 1385.94 64.9552 1377.21 92.8428H1377.21Z" fill="url(#paint2_linear_101_1477)"/>
<path opacity="0.2" d="M1324.69 120.806C1308.73 120.656 1296.32 112.045 1292.27 97.9583C1290.94 93.4234 1290.79 88.3988 1291.63 83.3667C1291.34 84.2104 1291.06 85.0616 1290.82 85.9204C1284.95 106.501 1294.76 126.509 1315.22 131.473C1336.9 136.731 1363.14 123.782 1374.4 100.557C1358.21 112.173 1341.29 120.776 1324.7 120.806H1324.69Z" fill="black"/>
<path opacity="0.4" d="M1368.03 58.8091C1366.6 57.3627 1364.95 55.9239 1362.99 55.0501C1362.09 54.6508 1361.1 54.6056 1360.17 54.8391C1357.48 54.9597 1355.08 57.4305 1355.62 59.9993C1356.19 62.651 1358.05 65.0465 1359.84 67.0202C1361.9 69.2876 1364.44 71.1182 1367.4 72.6625C1368.56 73.2651 1370.95 72.444 1371.7 71.1483C1374.63 66.0559 1371 61.8073 1368.02 58.8016L1368.03 58.8091Z" fill="white"/>
<path opacity="0.4" d="M1352.54 51.9748C1351.68 49.7601 1348.7 46.9653 1345.26 49.6697C1344.8 50.0237 1344.35 50.4381 1344.12 50.9126C1343.83 51.5002 1343.92 52.0953 1344.2 52.5172C1345.2 54.0464 1347.55 54.6792 1349.57 54.9805C1351.01 55.1915 1353.02 53.2102 1352.54 51.9748V51.9748Z" fill="white"/>
<path d="M1337.29 76.18C1330.58 74.244 1321.32 77.5059 1317.82 84.8733C1314.71 91.4271 1316.99 98.9978 1324.37 99.1862C1328.44 99.2916 1332.55 97.3405 1335.22 93.6116C1333.66 94.0335 1332.1 94.4478 1330.56 94.8621C1334.7 98.2294 1341.93 97.8829 1347.46 93.9958C1353.38 89.83 1356.58 82.8694 1355.89 76.9258C1354.52 65.031 1341.99 60.0215 1330.1 62.7184C1319.15 65.2043 1309.91 74.3269 1306.38 84.3911C1303 94.0335 1305.87 104.06 1313.12 109.333C1317.33 112.399 1322.79 113.944 1328.83 113.145C1335.22 112.301 1341.34 109.092 1345.63 103.608C1346.72 102.222 1345.93 100.294 1344.58 99.7361C1342.97 99.0732 1341.3 99.9395 1340.25 101.318C1335 108.135 1325.02 109.047 1319.12 106.282C1312.69 103.269 1308.96 96.2784 1310.09 88.7528C1311.21 81.3779 1316.96 73.5359 1324.42 69.9351C1332.75 65.9124 1342.8 67.0047 1347.36 73.5209C1349.91 77.1669 1350.35 82.5907 1346.73 87.1859C1343.74 90.9675 1338.12 92.8433 1334.86 90.2971C1333.43 89.1747 1331.36 89.9732 1330.22 91.5928C1329.02 93.2953 1326.41 93.9732 1324.53 93.589C1322.63 93.2049 1321.54 91.2839 1321.77 88.9713C1322.34 83.2988 1329.29 80.0521 1334.14 81.5587C1337.48 82.5982 1340.69 77.1744 1337.29 76.1876V76.18Z" fill="white"/>
<path d="M1406.71 189.385C1392.75 203.984 1372.1 204.406 1360.64 192.872C1350.39 182.544 1349.94 164.849 1359.37 151.47C1369.62 136.924 1389.25 130.566 1403.93 139.387C1420.65 149.444 1422.18 173.188 1406.7 189.392L1406.71 189.385Z" fill="url(#paint3_linear_101_1477)"/>
<path opacity="0.2" d="M1369.04 189.28C1360.08 183.608 1355.28 173.197 1356.83 161.385C1357.33 157.43 1358.72 153.491 1360.74 149.86C1360.3 150.41 1359.88 150.975 1359.47 151.555C1350.03 164.933 1350.49 182.629 1360.75 192.964C1371.16 203.45 1389.06 204.068 1402.83 193.152C1390.15 195.141 1378.22 194.93 1369.04 189.28V189.28Z" fill="black"/>
<path opacity="0.4" d="M1415 161.265C1414.76 159.578 1414.38 157.808 1413.6 156.339C1413.24 155.661 1412.67 155.224 1412.04 155.036C1410.41 154.041 1408.02 155.02 1407.32 157.258C1406.62 159.54 1406.77 162.117 1407.04 164.309C1407.35 166.802 1408.11 169.137 1409.19 171.397C1409.61 172.271 1411.28 172.58 1412.2 171.917C1415.85 169.296 1415.49 164.716 1414.99 161.265H1415Z" fill="white"/>
<path opacity="0.4" d="M1408.69 149.617C1409.07 147.462 1408.41 143.899 1405.25 144.698C1404.84 144.803 1404.4 144.954 1404.07 145.248C1403.66 145.609 1403.48 146.137 1403.48 146.604C1403.48 148.268 1404.63 149.745 1405.72 150.822C1406.49 151.591 1408.48 150.822 1408.69 149.624L1408.69 149.617Z" fill="white"/>
<path d="M1381.09 149.119C1375.71 155.047 1370.72 160.923 1365.91 166.52C1365.31 167.206 1365.34 168.208 1365.69 168.871C1368.63 174.377 1371.64 180.057 1374.78 185.903C1375.4 187.071 1377.04 186.973 1377.9 186.024C1383.07 180.268 1388.46 174.272 1394.08 168.019C1394.79 167.228 1394.82 166.106 1394.32 165.36C1391.01 160.396 1388.11 155.364 1385.63 150.234C1384.57 148.034 1380.65 150.053 1381.68 152.245C1384.21 157.624 1387.13 162.927 1390.53 168.147C1390.61 167.274 1390.69 166.4 1390.77 165.526C1385.3 171.741 1380.05 177.707 1375.01 183.432C1376.05 183.462 1377.08 183.492 1378.13 183.523C1374.9 177.632 1371.79 171.914 1368.77 166.37C1368.7 167.161 1368.63 167.959 1368.56 168.75C1373.49 163.123 1378.61 157.217 1384.13 151.251C1386.15 149.074 1383.06 146.957 1381.11 149.104L1381.09 149.119Z" fill="white"/>
<path d="M1378.25 168.641L1378.41 168.777C1378.61 168.95 1378.83 169.055 1379.1 169.093C1379.34 169.176 1379.59 169.183 1379.86 169.131C1380.13 169.093 1380.38 168.995 1380.6 168.837C1380.86 168.709 1381.08 168.528 1381.27 168.287L1381.58 167.79C1381.75 167.443 1381.82 167.089 1381.81 166.728L1381.72 166.223C1381.61 165.884 1381.42 165.605 1381.15 165.394L1380.97 165.259C1380.78 165.085 1380.54 164.987 1380.28 164.957C1380.04 164.882 1379.79 164.874 1379.52 164.935C1379.25 164.972 1379.01 165.078 1378.78 165.244C1378.52 165.372 1378.31 165.56 1378.13 165.793L1377.83 166.283C1377.67 166.622 1377.6 166.969 1377.61 167.323L1377.7 167.82C1377.8 168.159 1377.98 168.43 1378.25 168.649V168.641Z" fill="white"/>
<path d="M1276.66 181.881C1280.92 199.546 1267.96 216.925 1250.58 219.682C1235.82 222.025 1223.33 212.564 1220.85 199.17C1218.43 186.1 1225.96 171.373 1239.22 165.241C1254.71 158.084 1272.54 164.789 1276.66 181.881Z" fill="url(#paint4_linear_101_1477)"/>
<path opacity="0.2" d="M1253.1 210.789C1242.88 214.835 1232.25 212.914 1225.35 205.689C1223.15 203.407 1221.56 200.567 1220.58 197.501C1220.65 198.051 1220.73 198.601 1220.84 199.151C1223.32 212.56 1235.82 222.021 1250.6 219.678C1266.36 217.185 1278.52 202.608 1277.4 186.442C1271.33 197.132 1263.62 206.488 1253.1 210.789Z" fill="black"/>
<path opacity="0.4" d="M1259.61 165.446C1258.29 165.039 1256.84 164.685 1255.4 164.7C1254.73 164.7 1254.12 164.919 1253.65 165.265C1252.07 165.973 1251.41 167.841 1252.54 169.054C1253.72 170.312 1255.6 171.133 1257.31 171.744C1259.28 172.452 1261.41 172.806 1263.72 172.911C1264.62 172.949 1265.8 171.932 1265.83 171.058C1265.93 167.653 1262.36 166.297 1259.61 165.446V165.446Z" fill="white"/>
<path opacity="0.4" d="M1248.18 165.598C1246.98 164.656 1244.35 163.918 1243.12 166.14C1242.95 166.434 1242.81 166.758 1242.81 167.059C1242.81 167.436 1243.06 167.722 1243.35 167.88C1244.42 168.438 1246.02 168.204 1247.32 167.88C1248.25 167.647 1248.84 166.125 1248.17 165.598H1248.18Z" fill="white"/>
<path d="M1232.9 197.04C1233.58 192.874 1234.47 188.656 1235.67 184.467C1235.89 183.714 1236.06 182.795 1236.83 182.403C1237.59 182.011 1238.79 182.222 1239.6 182.26C1241.7 182.358 1243.85 182.471 1246.05 182.576C1248.25 182.682 1250.38 182.787 1252.61 182.9C1253.18 182.93 1253.75 182.953 1254.32 182.983C1254.65 182.998 1256.22 182.915 1256.45 183.096C1256.83 183.405 1256.04 185.575 1255.92 186.079C1254.78 190.848 1253.65 195.556 1252.54 200.204C1252.03 202.351 1255.37 203.323 1255.91 201.13C1256.68 197.989 1257.45 194.818 1258.23 191.624C1258.91 188.806 1260 185.778 1260.31 182.9C1260.65 179.895 1257.99 179.601 1255.6 179.526C1252.49 179.428 1249.49 179.33 1246.57 179.239C1243.88 179.156 1241.25 178.953 1238.67 178.991C1236.47 179.028 1234.5 179.917 1233.48 182.245C1232.52 184.407 1232.11 186.9 1231.6 189.13C1231.01 191.774 1230.51 194.418 1230.1 197.048C1229.79 198.984 1232.58 198.976 1232.89 197.032L1232.9 197.04Z" fill="white"/>
<path d="M1237.31 197.786C1239.51 194.908 1242.04 192.189 1244.82 189.605L1242.32 189.416C1244.43 192.543 1246.23 195.993 1247.54 199.729C1248.23 201.658 1251.25 201.048 1250.86 198.855L1250.82 198.629C1250.44 196.513 1247.15 197.424 1247.51 199.511L1247.55 199.729C1248.64 199.443 1249.74 199.149 1250.87 198.855C1249.4 194.765 1247.53 190.998 1245.19 187.593C1244.6 186.75 1243.54 186.607 1242.69 187.428C1239.76 190.222 1237.18 193.175 1234.87 196.256C1233.66 197.861 1236.11 199.39 1237.33 197.793L1237.31 197.786Z" fill="white"/>
<path d="M1237.93 204.039C1239.46 204.438 1241.02 204.838 1242.6 205.244C1244.57 205.757 1245.61 202.615 1243.6 202.133L1238.89 200.996C1237.03 200.544 1236.09 203.564 1237.93 204.039V204.039Z" fill="white"/>
<path d="M1265.83 104.277H1251.97C1251.15 104.277 1250.47 103.599 1250.47 102.77C1250.47 101.941 1251.15 101.263 1251.97 101.263H1265.83C1266.66 101.263 1267.33 101.941 1267.33 102.77C1267.33 103.599 1266.66 104.277 1265.83 104.277Z" fill="url(#paint5_linear_101_1477)"/>
<path d="M1245.65 135.163C1245.08 135.163 1244.55 134.846 1244.28 134.304C1243.93 133.551 1244.25 132.654 1245 132.293L1267.12 121.761C1267.86 121.407 1268.77 121.724 1269.13 122.477C1269.48 123.23 1269.17 124.127 1268.41 124.488L1246.29 135.02C1246.08 135.118 1245.87 135.163 1245.65 135.163Z" fill="url(#paint6_linear_101_1477)"/>
<path d="M1275.18 148.331C1274.93 148.331 1274.68 148.271 1274.45 148.143C1273.72 147.736 1273.45 146.825 1273.86 146.094L1278.91 136.994C1279.31 136.263 1280.22 136.007 1280.95 136.406C1281.69 136.813 1281.95 137.725 1281.54 138.455L1276.5 147.555C1276.22 148.053 1275.7 148.331 1275.18 148.331Z" fill="#9DA1FF"/>
<path d="M944.212 349.251L943.278 359.451C943.278 359.451 925.334 376.815 919.488 385.576C915.948 390.894 909.319 393.139 904.663 394.08C903.187 394.382 901.68 394.374 900.234 394.095C898.667 393.794 897.168 393.169 895.834 392.242C887.292 386.276 865.227 370.585 846.38 354.622C823.155 334.961 809.354 284.195 809.354 284.195L806.417 273.641C805.603 270.688 805.957 267.532 807.426 264.85C833.46 217.324 878.373 223.787 895.036 228.171C898.991 229.211 902.125 232.224 903.315 236.134L906.253 245.814C912.204 252.91 927.715 317.891 927.715 317.891L942.909 343.458C943.941 345.206 944.4 347.232 944.212 349.251V349.251Z" fill="url(#paint7_linear_101_1477)"/>
<path d="M1315.86 437.657C1313.9 438.99 1311.33 439.601 1309.02 439.909C1306.66 440.226 1304.29 440.173 1301.93 439.849C1299.3 439.495 1296.74 438.802 1294.23 437.951C1292.9 437.499 1291.59 436.994 1290.28 436.474C1289.48 436.158 1288.66 435.857 1287.89 435.48C1287.04 437.13 1286.1 438.727 1285.16 440.324C1284.36 441.68 1283.95 444.829 1284.69 445.047C1285.79 445.386 1286.9 445.672 1288.02 445.966C1290.48 446.599 1292.95 447.209 1295.41 447.819C1297.84 448.414 1300.26 449.002 1302.69 449.589C1304.54 450.041 1306.75 450.38 1307.23 452.565C1307.95 455.827 1304.95 458.84 1302.25 460.083C1298.63 461.748 1294.65 461.303 1290.85 460.595C1286.85 459.842 1282.46 458.689 1278.52 460.332C1275.24 461.695 1272.52 464.189 1268.86 464.55C1265.48 464.889 1262.21 463.157 1259.96 460.723C1257.42 457.959 1256.22 454.35 1255.71 450.689C1255.15 446.614 1255.24 442.425 1255.37 438.327C1255.5 433.981 1255.87 429.642 1256.58 425.348C1256.61 425.175 1256.67 425.039 1256.76 424.934C1256.31 424.572 1256.32 423.849 1256.97 423.63C1264.23 421.25 1271.78 420.323 1279.29 419.163C1279.38 419.148 1291.77 423.352 1297.51 425.31C1302.64 427.058 1307.85 428.565 1313.11 429.86C1314.85 430.29 1316.95 430.749 1317.88 432.474C1318.97 434.508 1317.52 436.535 1315.86 437.657V437.657Z" fill="#183456"/>
<path d="M1176.13 443.188L1180.5 436.642C1181.05 435.813 1181.85 435.18 1182.79 434.834L1244.45 411.85L1254.54 410.607C1254.54 410.607 1268.6 415.376 1275.58 440.552C1281.27 461.094 1265.15 475.596 1265.15 475.596L1253.26 478.541L1195.19 483.701C1194.2 483.792 1193.21 483.566 1192.36 483.061L1184.21 478.247L1176.14 443.188H1176.13Z" fill="url(#paint8_linear_101_1477)"/>
<path d="M1275.57 440.551C1268.6 415.376 1254.53 410.607 1254.53 410.607L1252.72 410.833C1266.12 418.939 1269.97 440.845 1267.06 455.994C1239.28 461.554 1211.49 468.386 1183.12 473.554L1184.2 478.262L1192.35 483.076C1193.2 483.581 1194.19 483.799 1195.18 483.716L1253.25 478.556L1265.14 475.61C1265.14 475.61 1281.27 461.109 1275.57 440.567V440.551Z" fill="url(#paint9_linear_101_1477)"/>
<path d="M1144.63 406.908C1144.63 406.908 1156.4 412.716 1171.1 441.545H1181.01C1182.29 441.545 1183.42 442.396 1183.78 443.624L1187.21 455.421C1187.58 456.724 1188.62 457.726 1189.94 458.05L1200.08 460.581C1201.64 460.973 1202.79 462.299 1202.94 463.896L1203.75 472.024C1203.94 473.915 1202.7 475.655 1200.86 476.099C1193.11 477.96 1173.95 482.209 1171.57 481.975C1163.67 481.199 1148.66 470.826 1148.5 468.815C1148.34 466.804 1140.34 405.981 1144.63 406.893V406.908Z" fill="#183456"/>
<path d="M1203.75 472.041L1202.94 463.913C1202.79 462.316 1201.64 460.982 1200.08 460.598L1189.94 458.067C1188.63 457.736 1187.59 456.734 1187.21 455.438L1186.21 452.026C1185.48 453.698 1184.12 455.28 1181.92 456.749C1169.11 465.035 1157.81 447.709 1152.54 437.163C1148.07 428.229 1148.47 419.294 1148.7 409.908C1146.11 407.663 1144.62 406.917 1144.62 406.917C1140.33 406.006 1148.34 466.828 1148.49 468.84C1148.65 470.851 1163.67 481.224 1171.56 482C1173.94 482.233 1193.11 477.985 1200.85 476.124C1202.7 475.68 1203.93 473.939 1203.74 472.049L1203.75 472.041Z" fill="#0D2135"/>
<path d="M1020.54 473.78C1018.32 475.641 1016.76 477.855 1018.13 481.675L1062.02 510.632H1076.08L1089.24 481.923L1126.51 487.754L1133.62 510.632C1136.78 508.967 1139.39 506.896 1139.61 503.031L1134 473.788L1086.41 466.435L1064.01 496.854L1020.53 473.788L1020.54 473.78Z" fill="#33FFFF"/>
<path d="M1079.67 389.228L1118.6 399.76L1129.35 405.07L1132.05 416.227L1088.43 419.27L1076.09 401.01L1079.67 389.228Z" fill="#183456"/>
<path d="M1104.34 409.282C1097.43 407.904 1088 400.19 1094.02 393.116L1079.67 389.237L1076.09 401.019L1088.43 419.279L1132.04 416.235L1130.48 409.787C1122.14 413.395 1113.24 411.346 1104.34 409.29V409.282Z" fill="#0D2135"/>
<path d="M1174.66 250.093C1190.7 266.817 1188.45 295.842 1184.8 312.558C1179.87 335.187 1165.3 356.672 1145.28 368.318C1125.26 379.964 1109.77 384.838 1086.69 386.894C1063.88 388.928 1041.83 388.906 1022.18 381.734C1001.14 374.051 983 357.982 973.29 339.443C956.973 308.294 971.527 278.312 971.527 278.312C971.527 278.312 968.062 272.889 963.617 266.696C959.399 260.82 960.762 252.572 966.676 248.413C1029.16 204.435 1102.14 190.522 1177.55 202.951C1186.16 204.367 1191.06 213.58 1187.4 221.498C1182.51 232.082 1176.72 245.152 1174.67 250.108L1174.66 250.093Z" fill="url(#paint10_linear_101_1477)"/>
<path d="M1026.43 250.857C1024.63 248.266 1021.24 247.347 1018.36 248.643C1005.64 254.375 974.194 273.298 982.428 317.661C992.688 372.916 1102.02 378.046 1137.14 337.789C1172.27 297.532 1148.83 255.317 1122.54 244.251C1099.12 234.39 1083.7 237.275 1077.71 239.204C1075.98 239.761 1074.56 240.996 1073.78 242.639L1069.12 252.522C1068.21 254.443 1066.44 255.799 1064.34 256.168L1037.97 260.824C1035.46 261.268 1032.92 260.213 1031.47 258.119L1026.41 250.857H1026.43Z" fill="url(#paint11_linear_101_1477)"/>
<path d="M1018.34 310.508C1015.15 311.435 1012.24 308.986 1011.41 304.866C1009.95 297.506 1009.8 293.694 1010.65 286.236C1011.14 282.063 1014.62 279.381 1017.84 280.172L1018.34 280.33C1021.52 281.257 1023.3 284.639 1022.77 287.961C1021.84 293.89 1023.02 296.383 1023.96 302.312C1024.48 305.634 1021.52 309.581 1018.34 310.508V310.508Z" fill="#0D2135"/>
<path d="M1103.39 295.209C1099.85 296.241 1094.63 295.45 1093.1 289.273C1091.8 281.024 1091.8 276.776 1093.1 268.527C1093.82 263.909 1096.4 260.075 1103.39 261.627C1106.93 262.659 1108.92 266.425 1108.34 270.116C1107.3 276.715 1107.3 280.12 1108.34 286.719C1108.92 290.411 1106.94 294.177 1103.39 295.209H1103.39Z" fill="#0D2135"/>
<path d="M1040.79 300.443L1074.93 291.532C1078.87 290.5 1082.65 293.641 1082.4 297.709C1081.83 306.929 1078.4 321.182 1063.03 324.595C1042.85 329.077 1037.7 315.276 1036.39 307.163C1035.91 304.127 1037.81 301.212 1040.79 300.436V300.443Z" fill="#183456"/>
<path d="M1079.59 292.256C1067.51 292.919 1055.36 302.094 1050.85 313.612C1049.23 317.929 1051.1 321.861 1053.95 325.409C1056.58 325.59 1059.57 325.371 1063.02 324.603C1078.39 321.191 1081.82 306.938 1082.39 297.717C1082.54 295.39 1081.36 293.371 1079.59 292.256V292.256Z" fill="#0D2135"/>
<path d="M1059.14 308.339C1052.87 311.864 1048.46 317.024 1045.86 323.066C1049.8 325.356 1055.32 326.32 1063.02 324.603C1073.53 322.267 1078.44 314.877 1080.7 307.487C1073.58 305.22 1065.66 305.371 1059.14 308.339Z" fill="#C4346C"/>
<path d="M1012.02 438.796L1009.49 440.243C1007.99 441.094 1007.11 442.714 1007.2 444.424L1008 459.806C1008.08 461.223 1008.81 462.526 1009.98 463.324L1013.28 465.569L1014.22 470.564C1014.5 472.01 1015.41 473.253 1016.71 473.946L1062.27 498.225C1062.93 498.572 1063.66 498.76 1064.4 498.76H1067.91C1069.56 498.76 1071.08 497.864 1071.88 496.417L1085.36 471.965C1086.19 470.466 1087.85 469.637 1089.54 469.871L1129.38 475.468C1131.05 475.701 1132.41 476.937 1132.81 478.586L1138.7 503.144C1138.82 503.657 1139.28 504.011 1139.8 504.011H1141.82C1142.33 504.011 1142.76 503.687 1142.91 503.205C1145.2 495.513 1162.57 434.744 1146.49 406.623L1142.71 401.297C1142.47 400.958 1142.12 400.702 1141.72 400.574L1129.22 396.551C1128.88 396.445 1128.52 396.43 1128.18 396.513L1122.62 397.847C1122.62 397.847 1117.9 398.457 1118.59 399.76C1119.62 401.681 1126.24 405.342 1126.57 412.589C1126.64 414.224 1125.19 415.504 1123.58 415.24C1117.69 414.284 1104.37 412.724 1092.58 410.487C1091.82 410.344 1091.18 409.869 1090.81 409.206L1077.82 385.914C1077.82 385.914 1047.68 377.108 1034.79 379.496C1026.12 381.1 1014.36 388.264 1013.31 389.455C1013.22 389.568 1013.19 389.733 1013.25 389.869C1014.08 391.436 1017.66 393.914 1018.52 394.494C1018.63 394.57 1018.77 394.577 1018.9 394.517C1020.59 393.605 1032.8 387.15 1036.67 389.086C1043.49 392.498 1046.44 436.921 1012.01 438.796H1012.02Z" fill="url(#paint12_linear_101_1477)"/>
<path d="M1018.13 481.668L1061.72 504.892C1062.75 505.434 1063.88 505.721 1065.04 505.721H1070.24C1072.95 505.721 1075.42 504.169 1076.6 501.728L1087.45 479.227C1088.17 477.728 1089.78 476.869 1091.42 477.102L1127.05 482.104C1128.83 482.353 1130.28 483.686 1130.67 485.449L1136.22 510.384C1136.3 510.768 1136.25 511.167 1136.05 511.514L1123.53 533.947C1121.2 538.113 1117.26 541.134 1112.63 542.264C1104.7 544.207 1090.66 545.767 1070.35 541.239C1069 540.938 1067.69 540.486 1066.44 539.883L1026.96 520.576C1024.44 519.341 1022.56 517.111 1021.77 514.421L1013.8 487.37C1013.68 486.971 1013.73 486.541 1013.92 486.172L1015.96 482.33C1016.37 481.547 1017.34 481.253 1018.12 481.668H1018.13Z" fill="url(#paint13_linear_101_1477)"/>
<path d="M1146.51 406.624L1145.63 405.388C1153.52 434.459 1144.37 467.401 1137.56 498.332L1138.72 503.145C1138.84 503.658 1139.3 504.012 1139.82 504.012H1141.84C1142.34 504.012 1142.78 503.688 1142.92 503.206C1145.22 495.514 1162.58 434.745 1146.51 406.624V406.624Z" fill="url(#paint14_linear_101_1477)"/>
<path d="M1035.51 379.383C1035.27 379.42 1035.03 379.458 1034.8 379.503C1026.13 381.108 1014.37 388.272 1013.32 389.462C1013.22 389.575 1013.19 389.741 1013.26 389.876C1014.09 391.443 1017.67 393.921 1018.53 394.502C1018.64 394.577 1018.78 394.584 1018.91 394.524C1020.6 393.613 1032.81 387.157 1036.68 389.093C1043.5 392.505 1046.45 436.928 1012.02 438.804L1009.49 440.25C1007.99 441.101 1007.11 442.721 1007.2 444.431L1008 459.814C1008.08 461.23 1008.81 462.533 1009.98 463.331L1013.28 465.576L1014.22 470.571C1014.5 472.017 1015.41 473.26 1016.71 473.953L1062.27 498.232C1062.43 498.315 1062.59 498.391 1062.75 498.451C1058.44 461.953 1061.22 425.485 1046.32 391.963C1043.98 387.285 1040.73 382.155 1035.51 379.39L1035.51 379.383Z" fill="url(#paint15_linear_101_1477)"/>
<path d="M1135.6 507.604C1135.47 508.229 1135.35 508.847 1135.23 509.472C1132.97 519.265 1123.93 525.292 1114.89 529.812C1092.72 540.2 1069.93 527.65 1064.06 505.653C1063.25 505.54 1062.46 505.291 1061.73 504.9L1018.13 481.675C1017.35 481.261 1016.39 481.554 1015.97 482.338L1013.94 486.18C1013.74 486.549 1013.7 486.978 1013.82 487.378L1021.78 514.429C1022.57 517.118 1024.46 519.356 1026.98 520.584L1066.46 539.891C1067.7 540.494 1069.01 540.945 1070.36 541.247C1090.68 545.774 1104.71 544.215 1112.64 542.271C1117.28 541.134 1121.22 538.113 1123.55 533.955L1136.07 511.521C1136.25 511.182 1136.31 510.775 1136.23 510.391L1135.61 507.612L1135.6 507.604Z" fill="url(#paint16_linear_101_1477)"/>
<path d="M1114.88 529.812C1123.92 525.292 1132.96 519.265 1135.22 509.472C1135.34 508.854 1135.47 508.229 1135.59 507.604L1130.66 485.449C1130.27 483.686 1128.83 482.353 1127.04 482.104L1091.42 477.102C1089.77 476.869 1088.16 477.728 1087.44 479.227L1076.59 501.728C1075.42 504.169 1072.95 505.721 1070.23 505.721H1065.04C1064.7 505.721 1064.38 505.691 1064.06 505.645C1069.92 527.65 1092.71 540.2 1114.88 529.804V529.812Z" fill="url(#paint17_linear_101_1477)"/>
<path d="M1016.5 389.23C1016.5 389.23 967.467 366.759 957.086 366.495L946.705 366.231C946.705 366.231 935.526 342.547 930.472 342.811C926.374 343.029 915.481 352.95 911.481 356.717C910.539 357.606 910.072 358.886 910.223 360.182L912.603 379.957C912.791 381.531 912.174 383.09 910.968 384.107L908.671 386.043C907.172 387.309 906.675 389.403 907.473 391.196C909.032 394.706 912.083 400.153 916.641 401.908C923.564 404.567 990.465 442.285 1014.89 441.57C1039.31 440.854 1044.06 404.115 1041.4 393.998C1038.74 383.881 1030.02 385.139 1030.02 385.139L1016.51 389.245L1016.5 389.23Z" fill="#183456"/>
<path d="M1041.39 393.982C1038.73 383.866 1030.01 385.124 1030.01 385.124L1018.2 388.709C1023.82 391.165 1022.3 419.942 1017.71 422.842C996.356 436.319 949.357 407.037 929.394 395.956C922.652 380.784 930.336 370.238 944.634 362.042C941.161 355.255 934.178 342.607 930.472 342.803C926.374 343.021 915.481 352.942 911.481 356.709C910.539 357.598 910.072 358.878 910.223 360.174L912.603 379.948C912.791 381.523 912.174 383.082 910.968 384.099L908.671 386.035C907.172 387.301 906.675 389.395 907.473 391.188C909.032 394.698 912.083 400.145 916.641 401.9C923.564 404.559 990.465 442.277 1014.89 441.562C1039.31 440.838 1044.06 404.107 1041.4 393.99L1041.39 393.982Z" fill="#0D2135"/>
<path d="M826.394 283.163L834.869 285.528C898.765 292.489 906.253 245.814 906.253 245.814L903.315 236.134C902.125 232.224 898.998 229.211 895.043 228.171C878.38 223.787 833.468 217.324 807.433 264.85C805.965 267.532 805.61 270.696 806.424 273.641L809.354 284.203C809.354 284.203 823.155 334.961 846.38 354.63C865.227 370.585 887.292 386.284 895.834 392.242C897.168 393.176 898.667 393.794 900.234 394.095L848.105 345.552L822.62 287.525C821.535 285.061 823.803 282.447 826.394 283.17V283.163Z" fill="url(#paint18_linear_101_1477)"/>
<path d="M899.435 310.599C889.492 315.571 886.109 325.146 884.746 335.195C883.887 341.492 890.637 346.058 896.196 342.976C907.88 336.49 920.084 330.615 930.449 322.486L927.722 317.891C927.722 317.891 927.247 315.902 926.434 312.58C917.341 311.352 908.678 306.644 899.443 310.599H899.435Z" fill="url(#paint19_linear_101_1477)"/>
<path d="M898.772 200.84C898.712 204.072 897.349 207.108 896.173 210.061C894.87 213.315 893.567 216.569 892.264 219.824C889.77 226.061 887.292 232.298 884.806 238.543C885.311 238.634 885.725 239.003 885.665 239.673C885.04 245.843 882.569 251.598 878.749 256.465C871.472 265.753 859.917 270.438 848.278 270.544C842.395 270.597 835.939 269.745 830.696 266.913C825.822 264.284 822.138 259.199 822.944 253.466C822.944 253.421 822.959 253.376 822.974 253.338C820.82 251.937 818.718 250.431 816.594 248.984L809.144 243.952C805.46 241.459 798.831 236.562 795.667 234.167C794.544 233.315 793.814 232.05 793.671 230.649C792.563 219.469 793.03 208.23 793.625 196.509C793.655 195.853 800.194 192.29 800.194 192.29L798.243 168.9C798.055 166.678 799.192 164.553 801.143 163.468L811.516 157.495L811.938 150.368C811.938 150.368 820.067 144.47 824.722 144.922C826.944 145.14 834.153 158.127 834.153 158.127C834.153 158.127 841.363 155.785 845.83 157.382C849.355 158.647 856.406 173.766 857.83 178.143C860.723 187.062 863.593 195.989 866.47 204.908C866.892 206.211 868.632 206.445 869.378 205.292C871.337 202.287 873.13 199.145 875.405 196.403C878.99 192.072 884.354 188.644 890.2 189.699C895.405 190.633 898.855 195.703 898.765 200.833L898.772 200.84Z" fill="#183456"/>
<path d="M860.926 187.719C859.894 184.525 858.869 181.338 857.837 178.144C856.414 173.768 849.363 158.649 845.837 157.383C842.447 156.17 837.483 157.225 835.283 157.805C839.946 167.816 847.095 176.668 849.619 187.38C853.785 186.612 857.83 185.459 860.933 187.719H860.926Z" fill="#183456"/>
<path d="M834.651 253.345C826.364 242.799 812.051 238.279 803.012 227.733C794.529 218.55 795.998 206.045 796.209 194.587C794.846 195.423 793.648 196.229 793.633 196.508C793.038 208.237 792.571 219.476 793.678 230.648C793.814 232.049 794.552 233.322 795.674 234.166C798.838 236.554 805.467 241.458 809.151 243.952L816.601 248.984C818.726 250.43 820.827 251.937 822.982 253.338C822.967 253.375 822.959 253.421 822.952 253.466C822.146 259.199 825.829 264.283 830.703 266.912C835.946 269.745 842.402 270.596 848.285 270.543C859.924 270.438 871.48 265.752 878.757 256.464C882.576 251.598 885.047 245.842 885.672 239.673C885.733 239.002 885.318 238.633 884.814 238.543C885.333 237.24 885.853 235.944 886.365 234.641C873.793 252.502 850.681 270.656 834.658 253.345H834.651Z" fill="#0D2135"/>
<path d="M851.977 239.033C854.237 242.046 859.51 239.786 861.016 236.773C866.862 227.032 870.809 215.401 869.619 204.938C869.544 205.058 869.469 205.179 869.386 205.299C868.64 206.444 866.892 206.218 866.478 204.915C864.632 199.183 862.779 193.45 860.926 187.717C857.822 185.457 853.777 186.61 849.611 187.378C849.641 187.521 849.687 187.664 849.717 187.808C836.157 193.081 834.651 208.9 827.871 219.447C827.464 219.853 826.673 220.253 825.709 220.584C835.886 223.846 845.197 229.164 851.977 239.033V239.033Z" fill="#0D2135"/>
<path d="M816.571 192.329C822.598 196.096 829.377 199.109 835.404 194.589C835.668 194.454 835.939 194.22 836.18 193.919C830.221 180.472 820.044 169.482 811.516 157.496L801.143 163.47C799.192 164.555 798.062 166.679 798.243 168.901L798.597 173.18C801.173 181.602 809.121 187.99 816.564 192.329H816.571Z" fill="#0D2135"/>
<path d="M819.946 194.279C818.801 193.684 817.671 193.021 816.571 192.328C809.128 187.989 801.181 181.601 798.605 173.179L800.021 190.189C813.46 192.321 815.358 207.507 822.018 216.381C823.524 218.641 826.364 220.961 827.871 219.455C829.317 217.202 830.522 214.709 831.66 212.125C829.046 205.338 825.423 198.829 819.946 194.287V194.279Z" fill="#0D2135"/>
<path d="M849.717 187.808C847.291 176.9 839.999 167.943 835.276 157.804C834.575 157.984 834.153 158.127 834.153 158.127C834.153 158.127 826.944 145.14 824.722 144.922C820.066 144.47 811.938 150.368 811.938 150.368L811.516 157.495C820.978 170.791 832.489 182.851 837.988 198.407C840.677 193.842 844.203 189.955 849.717 187.808V187.808Z" fill="#183456"/>
<path d="M1365.88 346.342L1354.11 345.83C1353.58 345.807 1353.22 345.288 1353.38 344.783L1353.52 344.354C1353.63 344.007 1353.95 343.781 1354.31 343.796L1366.08 344.308C1366.61 344.331 1366.97 344.851 1366.81 345.355L1366.68 345.785C1366.56 346.131 1366.24 346.357 1365.88 346.342Z" fill="#38ECFF"/>
<path d="M1364.24 352.942L1352.47 352.43C1351.94 352.407 1351.58 351.887 1351.74 351.383L1351.87 350.953C1351.99 350.607 1352.31 350.381 1352.67 350.396L1364.44 350.908C1364.97 350.931 1365.33 351.45 1365.17 351.955L1365.03 352.384C1364.92 352.731 1364.6 352.957 1364.24 352.942Z" fill="#38ECFF"/>
<path d="M1362.6 359.541L1350.83 359.029C1350.31 359.006 1349.95 358.486 1350.1 357.981L1350.24 357.552C1350.35 357.206 1350.68 356.98 1351.04 356.995L1362.8 357.507C1363.33 357.529 1363.69 358.049 1363.54 358.554L1363.4 358.983C1363.29 359.33 1362.96 359.556 1362.6 359.541Z" fill="#38ECFF"/>
<path d="M1360.97 366.147L1349.2 365.635C1348.67 365.612 1348.31 365.092 1348.47 364.588L1348.6 364.158C1348.72 363.812 1349.04 363.586 1349.4 363.601L1361.17 364.113C1361.7 364.136 1362.06 364.655 1361.9 365.16L1361.76 365.59C1361.65 365.936 1361.33 366.162 1360.97 366.147Z" fill="#38ECFF"/>
<path d="M1181.54 763.51L1292.45 712.916L1096.13 545.841L1381.76 573.248L1442.77 390.313L1492.03 510.436L1564.93 431.926L1592.41 523.376L1723.71 428.85L1653.24 558.682L1742.88 555.967L1649.98 638.465L1630.31 661.7C1630.31 661.7 1495.11 747.345 1435.55 771.754C1415.64 779.907 1370.59 811.169 1348.8 811.805C1323.63 812.547 1181.55 763.488 1181.55 763.488L1181.54 763.51Z" fill="#3A3D4D"/>
<path d="M1237 630.056C865.4 621.656 703.833 764.556 669.5 837.056C669.5 870.556 694.1 943.256 792.5 966.056C915.5 994.556 921.5 988.556 1079 986.556C1236.5 984.556 1374 1015.06 1810 927.056C2246 839.056 1879.5 880.056 1933 798.056C1986.5 716.056 2025 532.056 2072 296.556C2119 61.0563 1849 -98.4437 1853 100.056C1857 298.556 1701.5 640.556 1237 630.056Z" fill="#282A37"/>
<path d="M1630.48 74.5752C1626.84 80.3671 1621.77 85.0856 1615.43 87.5911C1609.83 89.8023 1602.3 88.3944 1599.67 82.9821C1598.5 80.5819 1598.45 77.8024 1598.64 75.1419C1599.63 61.4296 1603.88 47.305 1606.52 33.7879C1607.64 28.0329 1608.04 19.3943 1615.15 18.265C1620.55 17.4064 1625.05 21.6155 1628.15 25.4845C1631.59 29.7859 1634.16 34.6876 1635.72 39.9803C1638.9 50.7722 1636.91 64.3629 1630.48 74.5841L1630.48 74.5752Z" fill="#828699"/>
<path d="M711.225 570.926C708.295 569.426 704.755 568.756 701.295 568.776C681.695 568.936 653.245 579.866 639.435 594.236C632.985 600.946 633.295 612.316 642.185 616.726C650.745 620.976 662.005 614.636 670.025 611.576C679.295 608.036 688.455 604.196 697.505 600.136C705.505 596.546 717.925 592.806 718.075 582.096C718.155 576.606 715.265 572.986 711.235 570.926H711.225Z" fill="#696C80"/>
<path d="M697.505 548.826C696.395 545.396 692.525 542.116 686.855 541.696C682.225 541.356 677.005 538.706 672.605 540.796C668.205 542.886 666.235 547.756 670.335 551.126C674.845 554.836 683.475 557.416 689.205 557.136C696.455 556.796 698.755 552.706 697.505 548.816V548.826Z" fill="#696C80"/>
<defs>
<linearGradient id="paint0_linear_101_1477" x1="1295.15" y1="198.112" x2="1324.45" y2="198.112" gradientUnits="userSpaceOnUse">
<stop stop-color="#51F973"/>
<stop offset="0.99" stop-color="#22B573"/>
</linearGradient>
<linearGradient id="paint1_linear_101_1477" x1="1312.47" y1="218.601" x2="1343.4" y2="218.601" gradientUnits="userSpaceOnUse">
<stop stop-color="#2973E2"/>
<stop offset="1" stop-color="#29ABE2"/>
</linearGradient>
<linearGradient id="paint2_linear_101_1477" x1="1346.73" y1="44.9134" x2="1320.85" y2="134.688" gradientUnits="userSpaceOnUse">
<stop stop-color="#51F973"/>
<stop offset="0.99" stop-color="#22B573"/>
</linearGradient>
<linearGradient id="paint3_linear_101_1477" x1="1356.62" y1="190.026" x2="1385.23" y2="167.929" gradientUnits="userSpaceOnUse">
<stop stop-color="#2973E2"/>
<stop offset="1" stop-color="#29ABE2"/>
</linearGradient>
<linearGradient id="paint4_linear_101_1477" x1="1250.49" y1="210.816" x2="1248.52" y2="186.326" gradientUnits="userSpaceOnUse">
<stop stop-color="#716DFF"/>
<stop offset="1" stop-color="#B76DFF"/>
</linearGradient>
<linearGradient id="paint5_linear_101_1477" x1="1250.46" y1="102.77" x2="1267.33" y2="102.77" gradientUnits="userSpaceOnUse">
<stop stop-color="#51F973"/>
<stop offset="0.99" stop-color="#22B573"/>
</linearGradient>
<linearGradient id="paint6_linear_101_1477" x1="1244.14" y1="128.39" x2="1269.27" y2="128.39" gradientUnits="userSpaceOnUse">
<stop stop-color="#2973E2"/>
<stop offset="1" stop-color="#29ABE2"/>
</linearGradient>
<linearGradient id="paint7_linear_101_1477" x1="875.638" y1="225.181" x2="874.606" y2="394.133" gradientUnits="userSpaceOnUse">
<stop stop-color="#819AFF"/>
<stop offset="1" stop-color="#6A50FF"/>
</linearGradient>
<linearGradient id="paint8_linear_101_1477" x1="1217.69" y1="415.963" x2="1235.93" y2="480.967" gradientUnits="userSpaceOnUse">
<stop stop-color="#819AFF"/>
<stop offset="1" stop-color="#6A50FF"/>
</linearGradient>
<linearGradient id="paint9_linear_101_1477" x1="1219.14" y1="433.064" x2="1232.38" y2="464.537" gradientUnits="userSpaceOnUse">
<stop stop-color="#819AFF"/>
<stop offset="1" stop-color="#6A50FF"/>
</linearGradient>
<linearGradient id="paint10_linear_101_1477" x1="1069.64" y1="232.413" x2="1105.76" y2="390.638" gradientUnits="userSpaceOnUse">
<stop stop-color="#819AFF"/>
<stop offset="1" stop-color="#6A50FF"/>
</linearGradient>
<linearGradient id="paint11_linear_101_1477" x1="1061.7" y1="249.788" x2="1072.53" y2="335.763" gradientUnits="userSpaceOnUse">
<stop stop-color="white"/>
<stop offset="1" stop-color="#E3F0FF"/>
</linearGradient>
<linearGradient id="paint12_linear_101_1477" x1="1076.6" y1="402.246" x2="1088.31" y2="532.433" gradientUnits="userSpaceOnUse">
<stop stop-color="#819AFF"/>
<stop offset="1" stop-color="#6A50FF"/>
</linearGradient>
<linearGradient id="paint13_linear_101_1477" x1="1065.43" y1="477.893" x2="1089.73" y2="527.597" gradientUnits="userSpaceOnUse">
<stop stop-color="#819AFF"/>
<stop offset="1" stop-color="#6A50FF"/>
</linearGradient>
<linearGradient id="paint14_linear_101_1477" x1="1123.8" y1="440.44" x2="1144.52" y2="456.207" gradientUnits="userSpaceOnUse">
<stop stop-color="#819AFF"/>
<stop offset="1" stop-color="#6A50FF"/>
</linearGradient>
<linearGradient id="paint15_linear_101_1477" x1="1013.68" y1="425.304" x2="1058.29" y2="442.427" gradientUnits="userSpaceOnUse">
<stop stop-color="#819AFF"/>
<stop offset="1" stop-color="#6A50FF"/>
</linearGradient>
<linearGradient id="paint16_linear_101_1477" x1="1072.06" y1="487.95" x2="1085.13" y2="535.25" gradientUnits="userSpaceOnUse">
<stop stop-color="#819AFF"/>
<stop offset="1" stop-color="#6A50FF"/>
</linearGradient>
<linearGradient id="paint17_linear_101_1477" x1="1093.37" y1="474.202" x2="1115.9" y2="587.319" gradientUnits="userSpaceOnUse">
<stop stop-color="#819AFF"/>
<stop offset="1" stop-color="#6A50FF"/>
</linearGradient>
<linearGradient id="paint18_linear_101_1477" x1="893.65" y1="223.358" x2="855.909" y2="323.774" gradientUnits="userSpaceOnUse">
<stop stop-color="#819AFF"/>
<stop offset="1" stop-color="#6A50FF"/>
</linearGradient>
<linearGradient id="paint19_linear_101_1477" x1="919.36" y1="262.515" x2="906.848" y2="332.867" gradientUnits="userSpaceOnUse">
<stop stop-color="#819AFF"/>
<stop offset="1" stop-color="#6A50FF"/>
</linearGradient>
</defs>
</svg>
